<?xml version="1.0" encoding="UTF-8"?> <svg xmlns="http://www.w3.org/2000/svg" id="Слой_1" data-name="Слой 1" viewBox="0 0 510.24 286.3"><defs><style>.cls-1{fill:#fff;}</style></defs><path class="cls-1" d="M304.56,172.87a3.87,3.87,0,0,0-.21-1.31c-.46-1-1.27-1.71-1.69-2.85a.77.77,0,0,1,0-.45c2-6.72,4.4-12.73,10.65-16.67,3.88-2.45,8.07-4,11.89-6.66a5.83,5.83,0,0,1-2.2-2.43,4.56,4.56,0,0,1-1.63-2.24c-.15-.5.05-.65,0-1.26a2.61,2.61,0,0,1-.28-3.69,2.68,2.68,0,0,1-.47-2.7c-5.6-6.34-6.51-12.21-4.84-13.33-1.45-3.6-2-4.86-.55-6.74-1.66-3-.4-6.43.55-6.57a6.45,6.45,0,0,1-.14-4.78c.29-.58.7-.68,1.36-1.1a6.73,6.73,0,0,1,.73-2.46c.44-.77,2.91-2.48,3.42-2.39a5.2,5.2,0,0,1,2.07,1.07c.09.2.18.41.26.62.89-.82,2.49-1.85,2.89-1.78a5,5,0,0,1,2.07,1.06c1.31,2.94,2,6.56,4.09,9.6,3.06,4.43,8,9.39,10.77,13l.22.3c.21-.11,0,3.38,1.71,9,0-5.55,0-10,.3-10.42a4.25,4.25,0,0,0,1-3.49c-.5-1.61-3-2.4-3.75-3.28-1.84-2.24-2.27-3.74-2.21-5.57.09-2.91,1-5.15,3.35-6.37,2-1,5.11-1,9.54-.54A6.93,6.93,0,0,1,360,94.3a7.16,7.16,0,0,1,7,5c.13.48-.64.43-.72.89a5.57,5.57,0,0,1,.15,1.3,6.41,6.41,0,0,1-12.78,0,5.12,5.12,0,0,1,.21-1.47c0-.24-.09-.2-.31-.28-2.79-.35-5.34-.69-7.35-.23a5.26,5.26,0,0,0-4.14,3.94c-.77,3.11.15,4.72,2.14,6a14.94,14.94,0,0,0,3.6,1.81c2.21.68,5.46.81,7.44,1.94,1.28.72,1,1.63,2.36,1.82.77,1,2.59.35,3.56,1.34.2.2-.28.72-.11.94,1.05,1.3,4.1,1.91,4.6,3.36.11.32,0,.63-.53,1a3.71,3.71,0,0,1-.88,2.2c-3.29-.5-3.54-.26-2.22,1.53a1.55,1.55,0,0,1,.41.58c.08.26-.17.47-.47.58a1.79,1.79,0,0,1-1.86,1,3.34,3.34,0,0,1-1.89-.54c-.79-.85-.42.84-.45,1-.07.58-.52,1.22-.58,1.74a18,18,0,0,1,1,3.42c.76,2.31.91,4.74,1.67,7,1.27,3.77,3,6.08,1,10.36,0,.07-.06.12-.09.18A9.36,9.36,0,0,0,361,152c1.27,4,2.28,12.44,4.8,15.66,1.23,1.57,5.6.44,6.56,2.59.53,1.17-.86,1.78-1.47,2.62H360.48c-.63-.87-.66-2-1.19-2.83-1.9-3-3-6.31-4.81-9.38-.6-1-1.73-1.83-2.16-3.16a21.29,21.29,0,0,1-.17-2.25c-2.46,1.19-3,2.8-5.5,3.73-5.29,1.92-12,3.23-17.48,4.39-.06,0,7.3-8.61,2.63-9.36s-15.73,2.6-15.78,2.61,11.07-2.93,15-1.91c3.73.95-1.46,7.2-3.07,8.54-.37.31-4.84,4.22-4.62,4.34a2.15,2.15,0,0,0,1.16.15c4.66-.17,10.3-.77,14.47,1.74,1.72,1,.27,2.57-.81,3.39Zm21.73-28.73a4.59,4.59,0,0,0,1.9-1.73,4.67,4.67,0,0,1-1.63-2.24c-.14-.51.06-.65,0-1.27a2.62,2.62,0,0,1-.28-3.69,2.65,2.65,0,0,1-.46-2.69c-5.61-6.35-6.52-12.22-4.84-13.34-1.46-3.59-2-4.85-.56-6.74-1.65-3-.39-6.43.55-6.57a6.5,6.5,0,0,1-.13-4.78c.28-.58.7-.67,1.36-1.1a5.65,5.65,0,0,1,.26-1.31l-.09-.19c-.38-.42-1-1.4-1.31-1.43s-1.5.91-1.9,1.59a4.78,4.78,0,0,0-.33,2.16c-.58.37-1,.56-1.28,1.07a6.69,6.69,0,0,0-.41,4.61c-.84.13-1.86,5.79-.39,8.47-1.28,1.68-1,1.88.25,5.07-1.49,1,.09,6.94,5.07,12.57a2.91,2.91,0,0,0-.12,2.59,2.33,2.33,0,0,0,.25,3.28c.06.55-.12.67,0,1.12a4.11,4.11,0,0,0,1.45,2,5.61,5.61,0,0,0,2.64,2.56Zm38.33-44.2h-8.89c-.35.63-.54,0-.54,1.62s2.23,4.64,5,4.64,5-3,5-4.64-.19-1-.53-1.62Z"></path><polygon class="cls-1" points="302.63 177.1 372.34 177.1 372.34 178.27 302.63 178.27 302.63 177.1 302.63 177.1"></polygon><path class="cls-1" d="M315.22,182.33,313.49,184a5.36,5.36,0,0,0-4-1.87,4.36,4.36,0,0,0-4.43,4.42,4.59,4.59,0,0,0,.57,2.3,4,4,0,0,0,1.6,1.59,5,5,0,0,0,4.27.17,7.07,7.07,0,0,0,2-1.46l1.68,1.75a9.07,9.07,0,0,1-2.73,2,7.47,7.47,0,0,1-2.93.54,6.76,6.76,0,0,1-5-1.92A6.84,6.84,0,0,1,306,180.63a7.19,7.19,0,0,1,3.54-.92,7.57,7.57,0,0,1,5.67,2.62Zm2.16-2.29h9.37v13h-2.5v-10.7h-4.36v10.7h-2.51V180Zm12.33,13V180h6.8v2.42h-4.32V185h.53a8.17,8.17,0,0,1,2.7.37,3.45,3.45,0,0,1,1.73,1.36,3.93,3.93,0,0,1-1.26,5.87,5.27,5.27,0,0,1-2.54.51Zm2.48-5.9v3.54h.62a3.36,3.36,0,0,0,2.15-.45,1.58,1.58,0,0,0,.45-1.19c0-1.26-.91-1.9-2.71-1.9ZM340,180h6.46v2.42h-4v10.6H340V180Zm9.31,9.1-1.68,1.75a8.62,8.62,0,0,0,2.85,2,8,8,0,0,0,2.81.49,6.64,6.64,0,0,0,5-2,6.77,6.77,0,0,0,1.9-4.89,6.36,6.36,0,0,0-2.08-4.94,7,7,0,0,0-4.86-1.88,7.46,7.46,0,0,0-3.1.69,7,7,0,0,0-2.57,1.93l1.73,1.66a5.27,5.27,0,0,1,4-1.87,4.28,4.28,0,0,1,2.87,1,3.67,3.67,0,0,1,1.42,2.37h-5v2.25h5a4.21,4.21,0,0,1-1.71,2.46,4.8,4.8,0,0,1-2.63.76,5.44,5.44,0,0,1-3.94-1.86Zm16.85,1L361.56,180h2.8l3.06,7.26,2.51-7.26h2.55L369,189.35a7.23,7.23,0,0,1-1.94,3.2,3.58,3.58,0,0,1-2.23.81,4.69,4.69,0,0,1-3.56-1.89l1.63-1.64a2.68,2.68,0,0,0,1.92,1.13,1.2,1.2,0,0,0,.7-.2,4.2,4.2,0,0,0,.65-.67Z"></path><path class="cls-1" d="M284.19,127.87c10.31,7.69,10.93,24.64,1.75,44.24,5.41-6.94,10.17-16.9,8.83-29-.94-8.45-5.65-12.49-10.58-15.2Z"></path><path class="cls-1" d="M173.15,193.12c15-1.27,28.9-8.51,39.77-38.34-2.27,4.37-8.66,16.25-17.42,25.06a56.07,56.07,0,0,1-22.35,13.28Z"></path><path class="cls-1" d="M159.66,129c-2.54,7.43-3.25,16.73,3.08,22.48a9.36,9.36,0,0,0,1.53,1.13c-8.21-10.48-.44-35.5,13.8-46.56a45.2,45.2,0,0,0-18.41,23Z"></path><path class="cls-1" d="M194.33,94.3a46,46,0,0,0-45.27,35.17c-6.1,24,8.79,35.3,25.17,35.3a37.38,37.38,0,0,0,21.59-6.87c-6.75,20.64-19,27.48-31.33,28.58-8.84.79-19.22-1.06-27.49-7.34,0,0,4,8.42,15.95,12.56a35.88,35.88,0,0,0,15,.5c24.88-4.6,45.53-33.28,52.34-68.17,2.93-16-5.3-29.35-26-29.73Zm6.42,47.53c-3.18,9.21-14.43,15.39-25.3,15.53a19,19,0,0,1-3.38-.27h.06c-5.27-.52-10.69-2.73-13.71-7.28-5-7.69-3-17.76.66-25.6,6-12.68,18.4-23.71,33-23.6l-.09,0,.69,0c19.87.28,12.37,28.16,8.06,41.21Z"></path><path class="cls-1" d="M213.17,183s10.39,10.15,31.69,10.39A43,43,0,0,0,263,189.5c-20,5.54-42.07-2.14-49.78-6.51Z"></path><path class="cls-1" d="M241.15,102.05h54.93l1.41-5.39h-1.44c-.67,2.45-3.8,2.62-10.22,2.62H239.22l-14,38.44,2.22.44,13.73-36.11Z"></path><path class="cls-1" d="M286.52,110.18a9.63,9.63,0,0,0,8.75-5.62H242l-13.12,34.32,6.8,1.7c3.66-7.46,13.34-10.2,19.1-10.33,12.09-.27,16.79,9,16.79,20.23,0,8.5-2.92,28.13-27,34.29-11,2.82-23.71,0-27.46-.72,6,2.15,37.16,12.26,59.18-4.54,18.05-13.77,20.64-58.69-15.76-57.5a45.66,45.66,0,0,0-21.58,6.27l6.85-18.1Z"></path></svg> 